<svg width="40" height="40" viewBox="0 0 40 36" fill="none" xmlns="http://www.w3.org/2000/svg">
<path d="M27.72 30L29.8 32C27 34.4 21.88 36 16 36C7.18 36 0 32.42 0 28V8C0 3.58 7.16 0 16 0C21.9 0 27 1.6 29.8 4L27.72 6L27 6.8C25.3 5.54 21.56 4 16 4C8.26 4 4 7 4 8C4 9 8.26 12 16 12C18.74 12 21 11.62 22.84 11.08L24.76 13H19V15.84C18 15.94 17 16 16 16C11.22 16 6.94 14.94 4 13.28V18.9C6.6 20.8 11.16 22 16 22C17 22 18 21.94 19 21.84V23H24.76L22.76 25L23 25.22C20.82 25.72 18.48 26 16 26C11.44 26 7.22 25.1 4 23.54V28C4 29 8.26 32 16 32C21.56 32 25.3 30.46 27 29.22L27.72 30ZM29.84 8.16L27 11L32 16H22V20H32L27 25L29.84 27.84L39.68 18L29.84 8.16Z" fill="#273B69"/>
</svg>
