<svg width="40" height="40" viewBox="0 0 40 36" fill="none" xmlns="http://www.w3.org/2000/svg">
<path d="M17.68 18L7.84 27.84L5 25L10 20H0V16H10L5 11L7.84 8.16L17.68 18ZM24 0C17.18 0 11.36 2.14 9.06 5.14L10 6L12.06 8.14C12 8.1 12 8 12 8C12 7 16.26 4 24 4C31.74 4 36 7 36 8C36 9 31.74 12 24 12C18.76 12 15.16 10.62 13.36 9.44L19.6 15.68C21 15.88 22.48 16 24 16C28.78 16 33.06 14.94 36 13.28V18.9C33.4 20.8 28.84 22 24 22C22.08 22 20.2 21.8 18.48 21.46L15.18 24.74C17.82 25.54 20.82 26 24 26C28.56 26 32.78 25.1 36 23.54V28C36 29 31.74 32 24 32C16.26 32 12 29 12 28V27.92L10 30L9.08 30.86C11.38 33.86 17.2 36 24 36C32.82 36 40 32.42 40 28V8C40 3.58 32.84 0 24 0Z" fill="#273B69"/>
</svg>
