<svg width="40" height="40" viewBox="0 0 38 28" fill="none" xmlns="http://www.w3.org/2000/svg">
<path d="M23.9998 17.3334C19.5498 17.3334 10.6665 19.5501 10.6665 24.0001V27.3334H37.3332V24.0001C37.3332 19.5501 28.4498 17.3334 23.9998 17.3334ZM8.99984 10.6667V5.66675H5.6665V10.6667H0.666504V14.0001H5.6665V19.0001H8.99984V14.0001H13.9998V10.6667H8.99984ZM23.9998 14.0001C25.7679 14.0001 27.4636 13.2977 28.7139 12.0475C29.9641 10.7972 30.6665 9.10153 30.6665 7.33342C30.6665 5.5653 29.9641 3.86961 28.7139 2.61937C27.4636 1.36913 25.7679 0.666748 23.9998 0.666748C22.2317 0.666748 20.536 1.36913 19.2858 2.61937C18.0356 3.86961 17.3332 5.5653 17.3332 7.33342C17.3332 9.10153 18.0356 10.7972 19.2858 12.0475C20.536 13.2977 22.2317 14.0001 23.9998 14.0001Z" fill="#273B69"/>
</svg>
